# File created by Blade
# Date/Time:  Thu Jan 22 16:36:26 2015
# Frame Rate: 120.000 fps
#------------------------------------------------------
:FULLY-SPECIFIED
:DEGREES
1062
root 1.940885 3.768625 -11.893926 -70.381638 6.509930 3.371995
RightUpLeg -16.626975 9.197624 -9.129226
RightLeg -0.528781 -0.000000 0.000000
RightFoot 4.611889 -31.529461 29.005072
RightToeBase 8.411443 -0.000000 -0.000000
LeftUpLeg -123.826676 25.093558 -53.172049
LeftLeg 143.666600 -0.000000 -0.000000
LeftFoot 36.010146 -2.879659 -61.576210
LeftToeBase -4.195921 -0.000000 0.000000
Spine 75.667800 9.712816 -5.372528
RightShoulder 14.690854 -12.092523 -24.760437
RightArm 25.390873 -13.552059 85.153618
RightForeArm 60.402335 0.000000 100.386785
RightHand 13.661786 0.000000 -30.886612
RightHandThumb1 -24.326973 -0.000000 -32.862282
LeftShoulder -4.081707 27.517462 38.350460
LeftArm 82.469999 24.296830 -71.601842
LeftForeArm 20.364632 -0.000000 71.278158
LeftHand -29.469248 -0.000000 -15.586951
LeftHandThumb1 -26.253704 0.000000 33.147579
Head 12.536044 2.824000 10.275191
1063
root 1.937444 3.769927 -11.893552 -70.408110 6.477514 3.363180
RightUpLeg -16.587323 9.193013 -9.093506
RightLeg -0.558892 -0.000000 0.000000
RightFoot 4.621976 -31.595899 28.853864
RightToeBase 8.648580 -0.000000 -0.000000
LeftUpLeg -123.853458 25.122872 -53.145510
LeftLeg 143.683830 -0.000000 -0.000000
LeftFoot 35.997653 -2.880865 -61.564545
LeftToeBase -4.147312 -0.000000 0.000000
Spine 75.687852 9.726072 -5.332366
RightShoulder 14.695000 -12.104613 -24.761839
RightArm 25.395223 -13.545557 85.167082
RightForeArm 60.402079 -0.000000 100.403425
RightHand 13.673565 -0.000000 -30.911700
RightHandThumb1 -24.326973 -0.000000 -32.862282
LeftShoulder -4.102333 27.521727 38.325536
LeftArm 82.488302 24.302886 -71.587049
LeftForeArm 20.351936 -0.000000 71.256756
LeftHand -29.371358 -0.000000 -15.697181
LeftHandThumb1 -26.253704 0.000000 33.147579
Head 12.481046 2.839977 10.268054
1064
root 1.938249 3.772320 -11.895511 -70.440150 6.491959 3.354275
RightUpLeg -16.545987 9.147686 -9.099904
RightLeg -0.566585 -0.000000 0.000000
RightFoot 4.611985 -31.626113 28.878270
RightToeBase 8.608194 -0.000000 -0.000000
LeftUpLeg -123.840026 25.155148 -53.146229
LeftLeg 143.690616 -0.000000 -0.000000
LeftFoot 36.004587 -2.895908 -61.550415
LeftToeBase -4.120032 -0.000000 0.000000
Spine 75.721204 9.733292 -5.313699
RightShoulder 14.680455 -12.113277 -24.752350
RightArm 25.400029 -13.546026 85.179047
RightForeArm 60.432687 -0.000000 100.414356
RightHand 13.727448 -0.000000 -30.985712
RightHandThumb1 -24.326973 -0.000000 -32.862282
LeftShoulder -4.085236 27.501412 38.319364
LeftArm 82.481792 24.295024 -71.583333
LeftForeArm 20.351897 0.000000 71.269176
LeftHand -29.361592 -0.000000 -15.710602
LeftHandThumb1 -26.253704 0.000000 33.147579
Head 12.427164 2.816139 10.264418
1065
root 1.939892 3.773522 -11.898243 -70.462178 6.517516 3.368950
RightUpLeg -16.520191 9.125288 -9.128743
RightLeg -0.572435 -0.000000 0.000000
RightFoot 4.543655 -31.671411 29.085170
RightToeBase 8.428190 -0.000000 -0.000000
LeftUpLeg -123.837816 25.206181 -53.167815
LeftLeg 143.691740 -0.000000 -0.000000
LeftFoot 36.061116 -2.911015 -61.549991
LeftToeBase -4.181125 -0.000000 0.000000
Spine 75.753269 9.762755 -5.314315
RightShoulder 14.642948 -12.168727 -24.750189
RightArm 25.455412 -13.516714 85.204005
RightForeArm 60.259252 -0.000000 100.416275
RightHand 13.511825 0.000000 -30.912770
RightHandThumb1 -24.326973 -0.000000 -32.862282
LeftShoulder -4.084373 27.457949 38.311602
LeftArm 82.462001 24.295664 -71.574583
LeftForeArm 20.335537 -0.000000 71.284673
LeftHand -29.349828 -0.000000 -15.729864
LeftHandThumb1 -26.253704 0.000000 33.147579
Head 12.351429 2.820266 10.262247
1066
root 1.937123 3.774156 -11.898943 -70.482578 6.500711 3.389363
RightUpLeg -16.504853 9.132695 -9.116810
RightLeg -0.574079 -0.000000 0.000000
RightFoot 4.618543 -31.709997 28.841093
RightToeBase 8.600299 -0.000000 -0.000000
LeftUpLeg -123.884705 25.237366 -53.181606
LeftLeg 143.711615 -0.000000 -0.000000
LeftFoot 36.017405 -2.886388 -61.552411
LeftToeBase -4.087441 -0.000000 0.000000
Spine 75.767978 9.815673 -5.299260
RightShoulder 14.642516 -12.155302 -24.730281
RightArm 25.427113 -13.514106 85.211839
RightForeArm 60.257632 0.000000 100.448456
RightHand 13.512736 -0.000000 -30.950146
RightHandThumb1 -24.326973 -0.000000 -32.862282
LeftShoulder -4.104802 27.433225 38.318040
LeftArm 82.443505 24.313663 -71.582013
LeftForeArm 20.365767 -0.000000 71.290226
LeftHand -29.319202 -0.000000 -15.784269
LeftHandThumb1 -26.253704 0.000000 33.147579
Head 12.304071 2.823220 10.286953
1067
root 1.939616 3.777107 -11.901584 -70.523563 6.521093 3.389330
RightUpLeg -16.452322 9.070674 -9.125259
RightLeg -0.586858 -0.000000 0.000000
RightFoot 4.650642 -31.702466 28.828477
RightToeBase 8.510529 -0.000000 -0.000000
LeftUpLeg -123.851734 25.316416 -53.156064
LeftLeg 143.711285 -0.000000 -0.000000
LeftFoot 36.166653 -2.962668 -61.509622
LeftToeBase -4.137439 -0.000000 0.000000
Spine 75.810829 9.816586 -5.295636
RightShoulder 14.638504 -12.149990 -24.740490
RightArm 25.416625 -13.505575 85.237275
RightForeArm 60.235071 -0.000000 100.464718
RightHand 13.495352 0.000000 -30.929274
RightHandThumb1 -24.326973 -0.000000 -32.862282
LeftShoulder -4.084314 27.369617 38.278677
LeftArm 82.370457 24.302747 -71.618560
LeftForeArm 20.415044 -0.000000 71.316599
LeftHand -29.309936 -0.000000 -15.911243
LeftHandThumb1 -26.253704 0.000000 33.147579
Head 12.257385 2.818857 10.242412
1068
root 1.940279 3.780104 -11.903203 -70.560455 6.529266 3.383636
RightUpLeg -16.404036 9.020525 -9.120279
RightLeg -0.598387 -0.000000 0.000000
RightFoot 4.635872 -31.703090 28.848649
RightToeBase 8.504234 -0.000000 -0.000000
LeftUpLeg -123.840010 25.363494 -53.140659
LeftLeg 143.727713 -0.000000 -0.000000
LeftFoot 36.230173 -2.963249 -61.549434
LeftToeBase -4.244498 -0.000000 0.000000
Spine 75.847584 9.825656 -5.276891
RightShoulder 14.625315 -12.139510 -24.735820
RightArm 25.399822 -13.518005 85.245091
RightForeArm 60.247029 -0.000000 100.473467
RightHand 13.568385 -0.000000 -30.954698
RightHandThumb1 -24.326973 -0.000000 -32.862282
LeftShoulder -4.092274 27.346967 38.260012
LeftArm 82.366944 24.310361 -71.610384
LeftForeArm 20.434915 0.000000 71.316589
LeftHand -29.276525 -0.000000 -15.928227
LeftHandThumb1 -26.253704 0.000000 33.147579
Head 12.208217 2.829088 10.237707
1069
root 1.938005 3.783178 -11.904169 -70.597973 6.531904 3.365498
RightUpLeg -16.356287 8.968996 -9.109575
RightLeg -0.601848 -0.000000 0.000000
RightFoot 4.661273 -31.692740 28.787310
RightToeBase 8.610516 -0.000000 -0.000000
LeftUpLeg -123.842155 25.361927 -53.157807
LeftLeg 143.753005 -0.000000 -0.000000
LeftFoot 36.087982 -2.890898 -61.574743
LeftToeBase -4.092011 -0.000000 0.000000
Spine 75.874538 9.830350 -5.266502
RightShoulder 14.620812 -12.163355 -24.705656
RightArm 25.433949 -13.512422 85.228275
RightForeArm 60.273391 -0.000000 100.479288
RightHand 13.530561 -0.000000 -30.997913
RightHandThumb1 -24.326973 -0.000000 -32.862282
LeftShoulder -4.106117 27.344786 38.255772
LeftArm 82.365628 24.314006 -71.603130
LeftForeArm 20.440628 0.000000 71.316033
LeftHand -29.241805 -0.000000 -16.032596
LeftHandThumb1 -26.253704 0.000000 33.147579
Head 12.182716 2.834797 10.244560
1070
root 1.937249 3.782444 -11.904691 -70.600910 6.516378 3.397010
RightUpLeg -16.359220 8.982509 -9.107599
RightLeg -0.607643 -0.000000 0.000000
RightFoot 4.647124 -31.747438 28.793605
RightToeBase 8.872446 -0.000000 -0.000000
LeftUpLeg -123.895239 25.398167 -53.157714
LeftLeg 143.768150 -0.000000 -0.000000
LeftFoot 36.072796 -2.953523 -61.501253
LeftToeBase -4.162454 -0.000000 0.000000
Spine 75.862844 9.876038 -5.242005
RightShoulder 14.611071 -12.178607 -24.695127
RightArm 25.433372 -13.514003 85.231172
RightForeArm 60.257939 -0.000000 100.479540
RightHand 13.618850 -0.000000 -31.103784
RightHandThumb1 -24.326973 -0.000000 -32.862282
LeftShoulder -4.107649 27.369887 38.247573
LeftArm 82.394432 24.311404 -71.574825
LeftForeArm 20.469728 -0.000000 71.312863
LeftHand -29.241709 -0.000000 -15.964227
LeftHandThumb1 -26.253704 0.000000 33.147579
Head 12.174178 2.827326 10.223371
1071
root 1.938514 3.786742 -11.907049 -70.645456 6.547796 3.355579
RightUpLeg -16.294784 8.860864 -9.100452
RightLeg -0.626924 -0.000000 0.000000
RightFoot 4.620438 -31.758440 28.821727
RightToeBase 8.674193 -0.000000 -0.000000
LeftUpLeg -123.834308 25.417978 -53.132176
LeftLeg 143.775794 -0.000000 -0.000000
LeftFoot 36.072221 -2.969220 -61.473306
LeftToeBase -4.112099 -0.000000 0.000000
Spine 75.902839 9.839355 -5.244883
RightShoulder 14.593726 -12.187133 -24.694382
RightArm 25.460570 -13.539556 85.229564
RightForeArm 60.270385 0.000000 100.444481
RightHand 13.633653 -0.000000 -31.002187
RightHandThumb1 -24.326973 -0.000000 -32.862282
LeftShoulder -4.128799 27.371567 38.235274
LeftArm 82.399769 24.318889 -71.563068
LeftForeArm 20.458699 -0.000000 71.299166
LeftHand -29.229500 -0.000000 -15.920417
LeftHandThumb1 -26.253704 0.000000 33.147579
Head 12.147708 2.841102 10.207812
1072
root 1.936682 3.789321 -11.907164 -70.673525 6.536136 3.380684
RightUpLeg -16.267671 8.842727 -9.086806
RightLeg -0.630789 -0.000000 0.000000
RightFoot 4.590760 -31.811581 28.842547
RightToeBase 8.789638 -0.000000 -0.000000
LeftUpLeg -123.859039 25.490559 -53.105466
LeftLeg 143.803691 -0.000000 -0.000000
LeftFoot 36.111420 -3.003657 -61.443748
LeftToeBase -4.169032 -0.000000 0.000000
Spine 75.914492 9.880116 -5.235718
RightShoulder 14.587849 -12.202792 -24.691009
RightArm 25.482074 -13.560152 85.224643
RightForeArm 60.267705 -0.000000 100.427348
RightHand 13.595014 0.000000 -30.963360
RightHandThumb1 -24.326973 -0.000000 -32.862282
LeftShoulder -4.137937 27.402001 38.225395
LeftArm 82.418406 24.310761 -71.545695
LeftForeArm 20.464150 -0.000000 71.294056
LeftHand -29.253073 -0.000000 -15.931954
LeftHandThumb1 -26.253704 0.000000 33.147579
Head 12.136615 2.857719 10.196687
1073
root 1.935716 3.790198 -11.907264 -70.692241 6.525258 3.392485
RightUpLeg -16.253299 8.841416 -9.086047
RightLeg -0.630804 -0.000000 0.000000
RightFoot 4.541113 -31.877237 28.895128
RightToeBase 8.823104 -0.000000 -0.000000
LeftUpLeg -123.876605 25.531576 -53.070788
LeftLeg 143.826962 -0.000000 -0.000000
LeftFoot 36.137916 -2.990091 -61.469625
LeftToeBase -4.147166 -0.000000 0.000000
Spine 75.908924 9.899742 -5.223490
RightShoulder 14.602170 -12.210875 -24.676543
RightArm 25.500219 -13.569091 85.205693
RightForeArm 60.289644 0.000000 100.414116
RightHand 13.626272 -0.000000 -30.998219
RightHandThumb1 -24.326973 -0.000000 -32.862282
LeftShoulder -4.131413 27.427674 38.218268
LeftArm 82.427052 24.309147 -71.540748
LeftForeArm 20.440230 0.000000 71.277379
LeftHand -29.311596 -0.000000 -15.859046
LeftHandThumb1 -26.253704 0.000000 33.147579
Head 12.140530 2.893030 10.200966
